<?xml version="1.0" encoding="iso-8859-1"?>
<!-- Generator: Adobe Illustrator 16.0.0, SVG Export Plug-In . SVG Version: 6.00 Build 0)  -->
<!DOCTYPE svg PUBLIC "-//W3C//DTD SVG 1.1//EN" "http://www.w3.org/Graphics/SVG/1.1/DTD/svg11.dtd">
<svg version="1.1" id="Capa_1" xmlns="http://www.w3.org/2000/svg" xmlns:xlink="http://www.w3.org/1999/xlink" x="0px" y="0px"
	 width="792px" height="792px" viewBox="0 0 792 792" style="enable-background:new 0 0 792 792;" xml:space="preserve">
<g>
	<g id="tumblr">
		<g>
			<path d="M635.437,567.519c-7.178-2.458-15.195-0.071-19.846,5.985c-29.695,38.462-82.088,47.084-103.234,49.008
				c-23.711,2.174-40.367-2.404-50.344-13.378c-13.984-15.356-11.883-39.691-11.865-39.834c0.055-0.623,0.09-1.247,0.09-1.87
				V373.322h169.684c9.834,0,17.814-7.981,17.814-17.815V227.51c0-9.833-7.98-17.814-17.814-17.814H445.819V17.814
				c0-9.833-7.98-17.814-17.814-17.814H321.794c-9.833,0-17.814,7.981-17.814,17.814c0,180.159-136.549,187.961-142.285,188.211
				c-9.602,0.321-17.209,8.195-17.209,17.797v131.685c0,9.798,7.892,17.744,17.69,17.815l63.384,0.427v204.048
				c0,129.03,50.736,198.276,155.076,211.69c16.069,2.066,35.967,2.512,49.809,2.512c29.342,0,59.627-1.853,79.008-4.846
				c86.418-13.325,131.205-58.877,133.076-60.801c3.205-3.331,4.986-7.768,4.986-12.363V584.407
				C647.515,576.765,642.651,569.977,635.437,567.519z M611.886,706.116c-12.523,10.563-48.58,36.68-107.867,45.818
				c-29.072,4.489-91.104,5.772-118.84,2.228c-57.719-7.429-123.989-34.187-123.989-176.347V356.06
				c0-9.798-7.892-17.743-17.69-17.814l-63.384-0.428v-98.461c42.879-8.088,151.548-44.269,159.084-203.728h71.027V227.51
				c0,9.833,7.98,17.814,17.814,17.814h174.102v92.369H432.458c-9.834,0-17.814,7.981-17.814,17.814v211.174
				c-0.498,6.787-1.764,41.062,20.771,66.109c15.428,17.155,37.713,25.85,66.234,25.85c4.418,0,9.068-0.214,13.984-0.659
				c19.453-1.782,60.748-8.373,96.27-32.779v80.914H611.886z"/>
		</g>
	</g>
</g>
<g>
</g>
<g>
</g>
<g>
</g>
<g>
</g>
<g>
</g>
<g>
</g>
<g>
</g>
<g>
</g>
<g>
</g>
<g>
</g>
<g>
</g>
<g>
</g>
<g>
</g>
<g>
</g>
<g>
</g>
</svg>
