<?xml version="1.0" standalone="no"?>
<!DOCTYPE svg PUBLIC "-//W3C//DTD SVG 1.1//EN" "http://www.w3.org/Graphics/SVG/1.1/DTD/svg11.dtd" >
<svg xmlns="http://www.w3.org/2000/svg">
<metadata></metadata>
<defs>
<font id="salon_5medium" horiz-adv-x="20" >
<font-face units-per-em="2048" ascent="1638" descent="-410" />
<missing-glyph horiz-adv-x="860" />
<glyph horiz-adv-x="0" />
<glyph unicode="&#xd;" horiz-adv-x="681" />
<glyph unicode=" "  horiz-adv-x="860" />
<glyph unicode="&#x09;" horiz-adv-x="860" />
<glyph unicode="&#xa0;" horiz-adv-x="860" />
<glyph unicode="!" horiz-adv-x="280" d="M23 1300q8 23 47 19l36 -4l13 -260q10 -262 12 -385q2 -92 -1 -108.5t-30 -16.5q-20 0 -28.5 9t-14.5 40q-12 55 -27 370.5t-7 335.5zM87 143q-7 34 24 52q35 20 69.5 13t57.5 -42q18 -27 21 -41t-5 -35q-29 -63 -123 -6q-37 25 -44 59z" />
<glyph unicode="#" horiz-adv-x="1056" d="M29 733q-39 57 114 82q104 16 105 39q0 8 -10 23q-18 23 -27.5 86t2.5 79q14 18 39 19q25 0 38 -21.5t32 -93.5q20 -82 42.5 -95t129.5 -1l108 12v82q0 59 5 70.5t30 11.5q23 0 29 -9t8 -50q2 -66 21.5 -77t101.5 5q125 23 133 12q4 -4 6 -18q4 -20 -11.5 -30.5 t-70.5 -29.5q-86 -29 -109 -28q-35 0 -43 -31t7 -111q14 -74 21 -86t38 -10q41 2 118 21.5t113.5 18.5t36.5 -36q0 -20 -24 -30q-27 -10 -189 -56l-69 -18l4 -82q2 -59 12 -106.5t18.5 -67t6.5 -36.5t-19 -36q-20 -18 -26.5 -17t-24.5 27q-18 31 -46 152t-34 129 q-6 12 -127 -10l-123 -23v-106q0 -106 -22 -129q-51 -51 -66 65q-2 20 -4 45l-4 99h-74q-55 0 -65 5t-10 29q0 20 10 29.5t45 18.5q70 18 81 37.5t3 117.5q-8 117 -23 131q-8 8 -76.5 2t-128.5 -22q-18 -4 -32 18zM371 745q-12 -12 5 -130.5t32.5 -125t109.5 13t107 32.5 q9 9 -7 120l-18 111h-45q-57 2 -115.5 -4t-68.5 -17z" />
<glyph unicode="$" horiz-adv-x="700" d="M21 822q-5 83 24 136q18 39 70.5 92.5t109.5 92.5q27 20 31 90t9 128t34 58q33 0 40 -41t-1 -90t6 -90t62 -41q92 0 183 -41t91 -84q0 -31 -23.5 -35t-50.5 19q-33 33 -133 52t-115 -5q-2 -2 5.5 -50t18.5 -115t23.5 -131.5t22.5 -113.5l10 -49q6 -41 27.5 -59.5t70 -47 t93.5 -73.5q33 -35 42 -55.5t9 -67.5q0 -51 -10.5 -70.5t-65.5 -70.5l-76 -72l7 -80q6 -66 -8.5 -106.5t-43.5 -46.5q-16 -2 -20 10t-4 61q0 76 -13 111q-10 23 -23 29t-56 6q-53 0 -103.5 22.5t-68 51t1.5 53.5q16 16 41 -9q25 -20 100.5 -30t85.5 6q8 12 -12.5 139 t-34.5 154q-8 14 -68.5 48t-135.5 85t-114 102q-33 45 -38 128zM133 739q25 -35 109 -91t94 -44q8 8 -23 197.5t-45 216.5q-12 27 -31.5 23.5t-54.5 -40.5q-137 -135 -49 -262zM481 418q-8 -14 9.5 -102.5t31.5 -104.5q10 -12 19.5 -10t27.5 20q29 31 25 86 q-2 37 -12.5 53.5t-42.5 36.5q-51 31 -58 21z" />
<glyph unicode="%" horiz-adv-x="1167" d="M23 -322q-10 12 28.5 82t173.5 283q96 154 174 273.5t116 178t64.5 98.5t36 55.5t16.5 26.5t17 34q55 106 162 234t189.5 206t97.5 78q27 0 41 -21.5t8 -45t-31 -27.5q-39 -6 -153.5 -143.5t-211 -274.5t-96.5 -150q0 -12 -59 -98l-315 -490q-23 -37 -45 -75 q-41 -74 -103.5 -158t-75.5 -84q-18 0 -34 18zM96.5 824.5q22.5 111.5 112.5 205.5q123 127 158 37q12 -33 3.5 -53.5t9 -42t43.5 -21.5t54 -37q18 -23 22.5 -43t2.5 -57q-8 -78 -71.5 -140.5t-149.5 -78.5q-102 -18 -154.5 50.5t-30 180zM186.5 823.5 q-14.5 -71.5 1.5 -118.5q14 -29 64 -29q31 0 52.5 12t57.5 49q53 53 56.5 85t-45.5 61q-31 18 -38 31.5t-5 46.5q2 51 -19 55q-33 6 -71.5 -57.5t-53 -135zM717 235.5q31 99.5 137 167.5q37 23 58.5 22t35.5 -26q14 -23 -2 -45t-45 -22q-23 0 -57.5 -44t-42.5 -87 q-10 -43 15.5 -67.5t70.5 -14.5q49 10 87 46t38 71q0 37 22 63q14 20 20.5 19t26.5 -25q49 -57 2 -133q-70 -113 -206 -125q-59 -6 -77 -1t-48 36q-66 66 -35 165.5z" />
<glyph unicode="&#x26;" />
<glyph unicode="'" horiz-adv-x="358" d="M21 682.5q2 17.5 30 89.5q35 84 93.5 206t91.5 177q23 37 50 41t48 -27q12 -23 -21 -65q-20 -31 -76.5 -146.5t-104.5 -215t-58 -103.5q-14 -4 -39 14q-16 12 -14 29.5z" />
<glyph unicode="(" horiz-adv-x="583" d="M20.5 516q14.5 182 73.5 352q31 88 128 229.5t128 141.5q6 0 31 14.5t52.5 30.5t56 28.5t49 6.5t24.5 -33q2 -25 -9 -33t-62 -18q-23 -6 -67 -41t-101.5 -105.5t-107.5 -161.5t-84 -225.5t-34 -277.5q0 -150 37 -241t119 -148q57 -39 49 -76q-10 -37 -65 -12q-6 2 -11 4 q-119 63 -170 223t-36.5 342z" />
<glyph unicode=")" horiz-adv-x="440" d="M20 1380l31 33q33 33 47 29t59.5 -73t45.5 -85q0 -12 27.5 -57t43.5 -105l58 -184q121 -397 76 -608q-25 -115 -97.5 -218.5t-163.5 -150.5q-20 -12 -29 -10t-20 18q-20 27 -14 39t55 41q129 78 174 246q27 98 27 145q0 55 -24.5 206t-47.5 231q-47 164 -114.5 316.5 t-104.5 170.5z" />
<glyph unicode="*" horiz-adv-x="665" d="M20 827q0 23 8.5 30t32.5 9q29 2 44.5 5t21.5 8.5t3 12.5t-15 19q-25 29 -58 41q-33 16 -28.5 41t24 46.5t27.5 21.5q2 0 86 -76t94 -67q8 4 21.5 48t33 68.5t50.5 -2.5q23 -16 16.5 -81.5t7.5 -80.5q14 -16 121 -16q82 0 112.5 -14.5t18.5 -46.5q-8 -20 -96 -20.5 t-96.5 -9.5t34.5 -54q31 -33 34 -43.5t-15 -30.5l-25 -27l-45 33q-45 35 -53 25.5t-8 -66.5q0 -31 -10.5 -60.5t-27 -44t-28.5 -6.5q-16 10 -16 113t-13 103q-14 0 -43.5 -44.5t-37.5 -76.5q-10 -35 -25.5 -40t-44.5 19q-23 18 -24 27.5t16 44.5q12 23 27.5 46.5t23.5 35.5 t13 26.5t-3 20.5t-28.5 12t-57.5 10q-49 4 -60.5 11.5t-11.5 29.5z" />
<glyph unicode="+" horiz-adv-x="722" d="M20 473q0 8 9 23q8 14 35.5 18t107.5 4h129l-4 70q-2 41 -10 92t-13.5 83t-1.5 44q8 23 36 19.5t42 -29.5q12 -23 23.5 -139.5t19.5 -129.5q14 -16 150 -16q92 0 116.5 -5t34.5 -24q25 -49 -28 -59q-37 -8 -125 -8h-135v-160q0 -98 -5.5 -130t-17.5 -36q-14 -4 -23.5 -2 t-15.5 22.5t-9 53.5t-7 92q-10 147 -24.5 155.5t-137.5 18.5q-145 12 -146 43z" />
<glyph unicode="," horiz-adv-x="292" d="M22.5 -196.5q-4.5 10.5 4 23.5t22.5 29.5t33.5 42t38 56.5t35 77t22.5 99q8 72 12 88q6 20 34 16t40 -26q14 -27 2 -109q-20 -125 -95 -234.5t-124 -82.5q-20 10 -24.5 20.5z" />
<glyph unicode="-" horiz-adv-x="589" d="M25 398q-8 13 0 38q6 16 50 18.5t210 -5.5q264 -10 280 -35q8 -12 -8 -31q-10 -14 -49 -18.5t-150 -4.5q-115 0 -180 3.5t-105 12.5t-48 22z" />
<glyph unicode="." horiz-adv-x="133" d="M37 166q29 29 55.5 5t16.5 -71q-18 -86 -64.5 -29.5t-7.5 95.5z" />
<glyph unicode="/" horiz-adv-x="686" d="M31 -160q16 59 137 396q47 129 47 152.5t43 123.5l109 276q53 137 115 267.5t89 161.5q18 23 46 20.5t42 -27.5t-20 -63q-51 -53 -156.5 -303t-186.5 -476.5t-81 -244.5q0 -31 -61.5 -181.5t-79.5 -168.5q-16 -14 -23.5 -15.5t-19.5 13.5q-16 16 0 69z" />
<glyph unicode="0" horiz-adv-x="524" d="M23 610q-6 166 7 285t39.5 181.5t52 98t53.5 63t36 52.5q25 63 84 4q47 -45 82 -139q88 -231 107.5 -305t19.5 -180q2 -117 -17.5 -183.5t-76.5 -146.5q-82 -117 -191 -117q-61 0 -102 35q-47 39 -67.5 115t-26.5 237zM107.5 542.5q19.5 -192.5 76.5 -229.5 q47 -29 112.5 26.5t98.5 152.5q33 94 20.5 244.5t-61.5 267.5q-20 45 -20 64t-43 68.5t-62 49.5q-23 0 -55.5 -78t-50.5 -178q-35 -195 -15.5 -387.5z" />
<glyph unicode="1" horiz-adv-x="174" d="M20 745q0 244 9.5 253.5t42.5 5.5l32 -5l7 -288q4 -143 10 -258t12 -170.5t12.5 -95.5t6.5 -54t-3.5 -23.5t-15.5 -23.5l-27 -33l-22 33q-25 39 -44.5 240.5t-19.5 418.5z" />
<glyph unicode="2" horiz-adv-x="587" d="M20 23q0 47 61.5 146t124 181t62.5 88t19.5 25.5t57.5 71t73 118.5q35 68 45 103t10 86q0 74 -22.5 106.5t-81.5 38.5q-39 6 -55.5 0t-41.5 -31q-37 -39 -55 -88q-14 -33 -13 -43t25 -26q10 -8 15.5 -13.5t6.5 -9.5t-2 -6t-11 -4q-23 -8 -60 -4t-44 33.5t13 97.5 q16 66 78 123q41 41 61.5 50t69.5 9q147 0 195.5 -129t-33.5 -303q-29 -59 -108.5 -166.5t-118.5 -142.5q-23 -18 -23 -31q0 -8 -40 -66.5t-72.5 -117t-20.5 -72.5q4 -2 66.5 14.5t132 25.5t135.5 -19q74 -39 27 -78q-18 -14 -95 2q-51 10 -76.5 8t-80.5 -23 q-92 -37 -127 -38.5t-64 24.5q-33 31 -33 60z" />
<glyph unicode="3" horiz-adv-x="677" d="M23 233q6 10 69.5 16.5t165.5 27t182 59.5q70 33 108 129t3 158q-18 37 -98 60.5t-157 39.5t-89 39q-14 27 9.5 52.5t74.5 33.5q104 16 192 81.5t80 119.5q-14 104 -295 108q-66 0 -86 10t-10 39q10 25 153.5 22t204.5 -28q55 -25 87 -69t32 -101q0 -29 -17.5 -59.5 t-39 -54t-47 -44t-38.5 -28.5t-18 -10q-90 -49 -10 -66q94 -20 142.5 -95t32 -172.5t-92.5 -178.5q-43 -45 -100.5 -74t-159.5 -53q-242 -57 -272 0q-14 29 -6 38z" />
<glyph unicode="4" horiz-adv-x="481" d="M24.5 609.5q-6.5 13.5 2 62.5t45.5 133q41 92 90 239l53 164q4 18 41 19q20 0 27.5 -6.5t7.5 -24.5q0 -59 -83 -291.5t-83 -242.5q0 -20 8 -24.5t45 1.5q53 10 119 39l65 29l-6 174q-2 121 1 147.5t20 30.5q27 4 37 -6q8 -8 16 -179.5t16.5 -421t14.5 -329.5 q2 -66 -1 -79t-24 -11q-41 6 -52 63.5t-11 245.5q0 238 -13 246q-8 4 -27.5 -2t-62.5 -19.5t-92 -19.5q-53 -6 -71.5 -2t-47.5 28q-2 2 -8 7q-20 16 -26.5 29.5z" />
<glyph unicode="5" horiz-adv-x="622" d="M20 1083l39 31q39 31 62 23q55 -23 166.5 -17t181.5 17.5t111 -7.5q25 -20 21.5 -38.5t-32.5 -30.5q-27 -8 -137 -14.5t-206.5 -14.5t-100.5 -22q-8 -20 7 -189.5t28 -202.5l16 -38l45 28q43 27 103 27q37 0 58 -9.5t54 -37.5q51 -49 73.5 -98.5t22.5 -116.5 q0 -143 -129 -232q-39 -27 -64.5 -35t-74.5 -8q-68 0 -109.5 19.5t-86.5 70.5q-59 68 -39 103q18 31 77 -21q6 -4 13 -10q49 -49 80 -63q59 -31 125.5 -1.5t99.5 99.5q29 68 24.5 112t-47.5 91t-65.5 51t-77.5 -25q-109 -53 -156 -2q-20 23 -41.5 149t-31.5 273z" />
<glyph unicode="6" horiz-adv-x="550" d="M21.5 616q9.5 346 93.5 512q33 63 103.5 119t107.5 17q20 -18 16 -35t-31 -17q-16 0 -38.5 -14t-54.5 -58t-58.5 -114t-45 -194.5t-18.5 -282.5q0 -199 19 -201q8 0 28 39q33 63 99.5 91t134.5 5q45 -14 87 -61t58 -100q10 -35 8 -56.5t-22 -66.5q-33 -78 -115 -137.5 t-155 -59.5q-39 0 -89.5 30.5t-62.5 61.5q-74 176 -64.5 522zM130 218q-7 -11 9 -44q37 -76 99.5 -81t132.5 63q68 66 68 125t-66 104q-45 29 -65.5 29t-59.5 -35q-27 -23 -35 -41.5t-8 -58.5q0 -55 -7.5 -68.5t-33.5 2.5q-27 16 -34 5z" />
<glyph unicode="7" horiz-adv-x="524" d="M25 1192q6 14 22 16t76 -4q104 -8 194 -14q41 -2 59.5 -3t46.5 -5t37 -5t23.5 -10.5t16.5 -12.5t4 -20.5t-1 -26.5t-11.5 -36t-15.5 -44t-23 -58q-131 -324 -131 -365q0 -10 34 -10q29 0 48.5 -27.5t1.5 -46.5q-14 -12 -66 -20l-51 -8l-39 -132q-16 -57 -27.5 -109 t-15.5 -83t-8 -57.5t-5 -39t-6.5 -21.5t-12.5 -11t-25 -2h-41l2 90q2 88 36 203q37 125 11 125q-8 0 -23 -13q-14 -12 -21.5 -11t-19.5 18q-20 33 -15 43t52 30q39 16 66 29q16 8 56 108.5t40 135.5q2 25 50 148.5t48 127.5q0 8 -118.5 26.5t-190.5 22.5q-33 2 -50 23.5 t-7 48.5z" />
<glyph unicode="8" horiz-adv-x="589" d="M20 960.5q0 47.5 18.5 89.5t42 66.5t46.5 38.5q37 20 125 26.5t119 -10.5q47 -25 52 -135t-8.5 -196t-21.5 -109l-20 -61l98 -101q72 -72 85 -95t13 -66q-2 -76 -53 -117t-143 -41q-150 0 -201 86t29 205q47 74 47 86t-88 92q-72 66 -106 130t-34 111.5zM139 1049 q-82 -115 74 -261q70 -66 92 -36q20 29 31 206q6 109 -17 136q-27 31 -88 15.5t-92 -60.5zM233 420q0 -39 45.5 -64.5t101.5 -24.5t85 34q18 20 21 33t-5 40q-14 37 -72.5 83t-74.5 46t-58.5 -61.5t-42.5 -85.5z" />
<glyph unicode="9" horiz-adv-x="548" d="M20 924q0 102 65 205.5t159 150.5q37 18 63.5 22.5t77.5 -2.5q90 -10 125 -48t0 -89q-14 -20 -27.5 -169.5t-29.5 -200.5q-18 -59 -19.5 -242.5t15.5 -257.5q16 -70 -3 -90q-18 -23 -31.5 -18t-39.5 48q-20 35 -25.5 73t-7.5 165l-2 184l-84 2q-113 2 -174.5 72 t-61.5 195zM109 954q-8 -53 1 -90t42 -76q23 -29 41 -36t55 -7q61 0 80.5 34t28 159t20.5 169t37 48q47 8 54.5 16.5t-19.5 28.5q-39 35 -93.5 24.5t-105.5 -44t-91 -96t-50 -130.5z" />
<glyph unicode=":" horiz-adv-x="282" d="M41 756q29 43 72 28.5t80 -75.5q18 -33 17 -43.5t-26 -36.5q-31 -33 -57.5 -33t-65.5 33q-67 59 -20 127zM74 168q16 31 56 25.5t84 -41t48 -48t-20 -43.5q-61 -76 -140 -10q-63 54 -28 117z" />
<glyph unicode=";" horiz-adv-x="294" d="M20 -31q0 27 8.5 34t43.5 11q51 4 71.5 32t15.5 62.5t-5 68.5t10 52q18 20 43 21q20 0 24.5 -16.5t6.5 -71.5q2 -35 4 -56q2 -53 -25 -106t-61 -68q-37 -14 -86 -10q-33 4 -41.5 11.5t-8.5 35.5zM62 693.5q2 17.5 22 60.5q10 29 13 35t15.5 27.5t17.5 24.5t18.5 11 t23.5 1t26.5 -19.5t32.5 -36.5q80 -106 19 -172q-45 -51 -113 -31q-45 14 -65 57q-12 25 -10 42.5z" />
<glyph unicode="&#x3c;" horiz-adv-x="1028" d="M23 531q6 12 45 44q86 74 389 211.5t385 196.5q43 31 60.5 34t33.5 -13q18 -18 15 -43t-23 -33q-12 -4 -35 -19.5t-71 -44t-113 -59.5q-575 -272 -574 -293q12 -12 234.5 -72.5t430.5 -133.5t208 -120q0 -16 -11.5 -21t-39 -1t-63.5 15t-97.5 30.5t-127 41t-164.5 52.5 t-198 57q-143 41 -202.5 69t-75.5 65q-12 25 -6 37z" />
<glyph unicode="=" horiz-adv-x="1058" d="M20 831q0 12 2.5 18.5t9.5 11.5t15 6t26.5 3t38 3t53.5 5.5t68 10.5q51 8 284 6t239 -10q6 -12 -2 -35q-4 -14 -26.5 -18.5t-86.5 -4.5q-68 0 -214 -12t-259 -21.5t-125 -2.5q-23 7 -23 40zM80 516q8 24 209 51q100 12 396 6t325 -20q29 -16 28 -41q0 -16 -24 -20 q-37 -6 -316 -5q-342 2 -462 -16q-88 -14 -109 -13t-33 19q-18 27 -14 39z" />
<glyph unicode="&#x3e;" horiz-adv-x="829" d="M23 264l43 45q43 45 43 60q0 35 163.5 161.5t288.5 188.5q113 57 109 72q-8 23 -312.5 87t-334.5 89q-13 10 18 51q25 37 42 40t48 -24q45 -39 240 -67q186 -29 309 -76t127 -92q6 -45 -31 -73t-130 -69t-152 -79q-23 -12 -62 -35t-57.5 -37t-71.5 -65.5t-137 -141.5 l-86 -94z" />
<glyph unicode="?" horiz-adv-x="540" d="M37 1122q20 41 42.5 60.5t65.5 29.5q51 14 135.5 7t127.5 -27q61 -29 86.5 -76t25.5 -131q0 -72 -11 -100.5t-75 -122.5q-94 -141 -135 -250t-6 -131q14 -8 13 -48t-15 -48q-16 -10 -50 25.5t-46 78.5q-14 49 4 114.5t49 118t58.5 96.5t29.5 52q0 6 17.5 32.5t36 61.5 t33.5 75t10 80t-38 68q-20 20 -45.5 28.5t-83.5 10.5q-86 6 -118.5 -8t-32.5 -59q0 -33 -20.5 -46.5t-47.5 3.5q-47 29 -10 106zM253 47q-1 12 19 45q41 61 82 4q43 -61 -12 -98q-23 -14 -32 -13t-29 23q-27 27 -28 39z" />
<glyph unicode="@" horiz-adv-x="1355" d="M21.5 487.5q5.5 116.5 48.5 239.5q35 98 74.5 159.5t105.5 114.5q125 104 196.5 130t204.5 22q84 -2 122 -10t91 -37q152 -78 201 -205t-16 -276q-23 -49 -140.5 -211t-183.5 -195q-51 -25 -103.5 -18.5t-86.5 41.5q-20 23 -43 26.5t-40.5 -2.5t-43 1t-54.5 38 q-27 29 -34 51.5t-5 89.5q0 199 117 318q37 37 53.5 44t51.5 1q45 -6 82.5 -46t58.5 -104q14 -41 12 -52t-31 -34q-37 -29 -36 -55q0 -25 -13.5 -74t-20.5 -76.5t7 -56.5q39 -37 88 -11t90 67t41 51q0 6 27.5 43t62.5 86t61.5 113.5t33 127t-34.5 127t-129 111.5 q-55 29 -89 35t-116 6q-80 0 -115 -6t-78 -27q-80 -41 -162.5 -127t-121.5 -170q-29 -63 -38.5 -103t-11.5 -134q-8 -166 33 -280t144 -218q82 -84 161.5 -118t200.5 -38q90 -2 124 6.5t122 51.5q225 106 340 319q72 133 100 80q2 -2 4 -6q12 -31 -49 -137.5t-131 -177.5 q-55 -53 -115.5 -93.5t-109.5 -64t-111.5 -34.5t-101.5 -15t-98.5 0t-81 7t-70.5 9q-88 14 -215 121.5t-144 185.5q-2 8 -28.5 76t-44 132.5t-12 181zM397 403q8 -31 17.5 -41t29.5 -10q23 0 29 8.5t10 34.5q6 74 31 161t43 97q25 16 24 33t-26 31q-31 16 -46 10t-42 -47 q-37 -59 -58.5 -144t-11.5 -133z" />
<glyph unicode="A" horiz-adv-x="647" d="M30 226q24 240 79 423l61 213q14 51 27.5 137t27.5 133.5t43 65.5q19 12 33 12q13 0 21 -10q18 -22 49 -104q18 -51 30 -82q16 -41 22.5 -100.5t27.5 -127.5q28 -83 28 -110q0 -20 30 -165.5t54 -246.5l64 -282l-33 -35q-25 -25 -32 -26h-1q-7 0 -20 20q-20 27 -21 53 q0 29 -35.5 167t-46.5 148q-14 15 -150 21q-43 2 -73 2q-65 0 -72 -10q-10 -14 -22 -164q-10 -115 -27 -151q-13 -29 -40 -29q-7 0 -15 2q-19 3 -19 84q0 60 10 162zM166 451q6 -12 50 -16.5t97.5 -5.5t69.5 -7q10 -3 17 -3q11 0 16 7q2 3 2 11q0 24 -12 94q-16 95 -44 206 q-14 59 -23 126t-13 98.5t-13 31.5q-8 0 -79.5 -264t-67.5 -278z" />
<glyph unicode="B" horiz-adv-x="552" d="M27 1135q-6 22 -6 38q1 23 11 35q18 22 81 33q52 8 97 8q161 0 220 -110q25 -47 37 -127q7 -48 8 -92q0 -30 -4 -58q-8 -55 -18.5 -80.5t-36.5 -54.5l-45 -47l55 -37q47 -33 64.5 -77t33.5 -173q7 -56 7 -107.5t-7 -98.5q-14 -95 -53 -144l-37 -43l-330 -4l5 110 q1 22 1 41q0 43 -4 70q-4 39 -12 64.5t-19.5 141.5t-19.5 314q-12 344 -28 398zM114 1124q1 -14 5 -24t9 -64.5t9 -134.5q9 -181 23 -197q4 -4 12 -5q23 0 79 30q77 41 107 80q27 34 27 109q0 24 -3 52q-11 116 -54 156q-29 25 -116 31q-17 1 -32 1q-57 0 -63 -19 q-3 0 -3 -9v-6zM154 580q-3 -30 -3 -63q0 -83 21 -189q20 -102 27 -168l6 -68l100 -4q16 -1 30 -1q71 0 87 17q24 24 24 153v11v35q0 109 -4 149t-20 64q-29 46 -71 68q-37 20 -66 19h-7q-32 -3 -61 -1t-33 6q-8 13 -15 13q-11 0 -15 -41z" />
<glyph unicode="C" horiz-adv-x="522" d="M20 471q2 385 54.5 573.5t171.5 235.5q35 14 51 14h4q43 0 97 -39q56 -41 88 -94q18 -31 17 -53q0 -16 -9 -27q-17 -20 -29 -20q-14 0 -23 24q-14 39 -58 76t-77 37q-41 0 -84 -44t-59 -103q-26 -101 -50 -399q-16 -198 -16 -300q0 -52 4 -80q6 -49 43 -119.5t62 -86.5 q20 -10 51 11t45 60q12 31 47 31q20 0 26.5 -8t6.5 -33q0 -43 -58.5 -104.5t-99.5 -61.5q-37 0 -90 53.5t-86 122.5q-20 45 -24.5 95.5t-4.5 238.5z" />
<glyph unicode="D" horiz-adv-x="514" d="M27 14q-6 38 -6 91t6 122l26 283q12 123 18.5 293t12.5 262.5t22 110.5q14 16 34 19q7 1 17 1q20 0 54 -4q84 -8 126 -36t75 -93q49 -94 65.5 -209t16.5 -344q1 -34 0 -62q0 -78 -4 -115q-6 -50 -23 -100q-31 -78 -84 -138t-137 -123.5t-99 -75.5q-31 -29 -46 -35 q-6 -3 -13 -3q-8 0 -16 5q-10 6 -15.5 12t-8.5 19.5t-5 26.5t-6 41t-10 52zM104 93.5q0 -64.5 7 -83.5q1 -1 4 -2q11 0 47 22q45 26 108.5 82t100.5 124q32 63 32 273q-1 31 -1 66q-6 267 -46 386q-27 76 -60.5 108.5t-96.5 32.5h-56l-1 -189q-2 -55 -7.5 -172.5 t-12.5 -229.5t-12.5 -232.5t-5.5 -185z" />
<glyph unicode="E" horiz-adv-x="372" d="M20 -80l11 567q8 568 24 586q9 10 29 12q7 1 14 1q14 0 30 -3q24 -4 68 -9t83 -7q47 0 58 -6t15 -31v-8q0 -26 -24 -35q-20 -7 -71 -7q-20 0 -44 1l-86 4l-4 -170q-1 -45 -1 -79q0 -94 8 -102q5 -5 21 -5q21 0 60 8q72 15 97 15h6q20 -3 20 -31q0 -27 -32 -42.5 t-120 -35.5l-55 -11v-454h111q82 0 96 -4t14 -31q0 -23 -14.5 -30t-79.5 -13q-55 -6 -83 -15.5t-48 -29.5q-37 -35 -70 -35h-33z" />
<glyph unicode="F" horiz-adv-x="385" d="M20 569v537l91 33q76 29 150 29q11 0 22 -1q57 -2 69.5 -7t12.5 -30t-14.5 -31.5t-76.5 -13.5q-39 -6 -61.5 -10t-45 -12t-31.5 -19.5t-20.5 -30t-11.5 -44t-4 -61.5q-2 -18 -2 -38t2 -43l2 -102l111 4q28 1 49 1q32 0 46 -2q24 -3 36 -17q13 -15 13 -27q0 -28 -70 -39 q-18 -4 -60 -6q-88 -10 -100 -23q-16 -16 -25.5 -297.5t-27.5 -302.5q-12 -12 -18.5 -12t-18.5 10q-16 16 -17 555z" />
<glyph unicode="G" horiz-adv-x="479" d="M20 616v28q0 256 46 396q63 197 163 226q39 12 60 12q8 0 14 -2q21 -6 62 -47q43 -43 65 -105q13 -33 13 -54q0 -17 -9 -26q-16 -16 -37.5 -4.5t-36.5 45.5q-16 39 -44.5 70t-51.5 31q-18 0 -51 -40t-51 -87q-16 -35 -39 -174q-16 -92 -17 -155q-1 -10 -1 -20 q0 -65 8 -188q10 -156 19 -203t40 -108q37 -76 60 -91q7 -4 14 -4q19 0 41 27q25 29 61 161q27 103 27 142q0 11 -2 17q-8 20 -44 20t-49.5 36t-5.5 48q8 13 41 13q11 0 25 -1q55 -6 84 -28q23 -16 29 -34.5t6 -65.5q0 -59 -24.5 -167t-49.5 -155q-23 -43 -78 -79 q-47 -31 -78 -31q-5 0 -10 1q-31 8 -76 65.5t-69 121.5q-51 133 -54 409z" />
<glyph unicode="H" horiz-adv-x="563" d="M20 1190l31 12q33 12 49 -3t21 -253l6 -235l129 -4q26 -1 47 -1q85 0 100 13q20 16 20 105q0 95 -22 233q-16 104 -16 128t18 36q19 16 31 17h2l21 -18q12 -18 20 -52.5t21 -102.5q25 -144 25 -381q0 -145 -9 -324q-6 -128 -6 -188v-26q2 -54 18 -109q17 -59 17 -72 q0 -14 -19 -26q-18 -13 -34 -13q-32 0 -54 56q-20 55 -20 344v286l-137 -4q-137 -4 -147.5 -10t-10.5 -272v-269l-35 -16q-35 -14 -47 -2t-16 582z" />
<glyph unicode="I" horiz-adv-x="145" d="M20 178v36q0 124 10 474q12 410 15 426q5 13 29 13q6 0 14 -1l37 -4v-260q0 -52 1 -106q0 -213 -7 -437q-8 -260 -21 -278q-4 -6 -16 -8h-6q-26 -1 -39 29q-14 34 -17 116z" />
<glyph unicode="J" horiz-adv-x="641" d="M31 311q6 4 12 4q23 0 51 -49q4 -6 6 -12q33 -63 78 -110q42 -44 66 -44h4q53 10 94 189.5t54 374.5q6 96 6 167q0 73 -7 119l-12 90l-55 9q-55 6 -74 18q-12 8 -15 32t7 36q10 8 178 8t186 -21q10 -14 10 -25q0 -8 -6 -15q-14 -15 -67 -27l-68 -15l4 -178q1 -33 1 -66 q0 -164 -24 -338q-30 -208 -79 -327q-29 -68 -78 -88q-25 -10 -50 -10q-23 0 -46 9q-47 19 -85 48t-48 51l-35 70q-21 44 -21 70q0 20 13 30z" />
<glyph unicode="K" horiz-adv-x="718" d="M22 1230q4 8 24 8q7 0 17 -1l37 -4l11 -227q10 -225 16 -246q6 -12 26.5 2t76 59t106.5 80t128 94.5t126 97t59 37.5q16 0 32.5 -17t16.5 -32.5t-185 -163t-185 -156.5t61 -194q184 -565 184 -590q0 -14 -28 -30q-14 -7 -24 -7q-15 0 -25 14q-16 26 -41 120 q-8 37 -15.5 59.5t-19.5 64.5t-25 81l-78 225q-14 41 -29.5 84t-22.5 61.5t-7 26.5q0 22 -17 22q-20 0 -65 -30l-57 -37l10 -215q4 -100 12.5 -183t14.5 -120t10 -65t1 -37t-15 -19q-15 -12 -28 -12q-30 0 -48 65q-33 129 -49 748q-7 284 -7 384q0 49 2 53z" />
<glyph unicode="L" horiz-adv-x="387" d="M21 1144q0 19 16 27q19 12 35 12q8 0 18 -4q24 -10 33 -42q16 -51 40.5 -325.5t33.5 -475.5l9 -250h75q74 0 81 -23q4 -11 4 -20q0 -20 -18 -32q-26 -17 -102 -27q-53 -6 -77 -6h-11q-22 2 -35 16q-25 25 -38 230.5t-24.5 466.5t-27.5 360q-12 74 -12 93z" />
<glyph unicode="M" horiz-adv-x="768" d="M20 1110q0 63 3.5 79.5t21.5 16.5q16 0 28.5 -18.5t28.5 -65.5q31 -88 126.5 -276.5t109.5 -194.5q8 -2 13 4.5t11.5 42t13.5 90t19 166.5q16 141 26.5 188.5t35.5 84.5q20 31 36.5 43t38.5 12q41 0 54 -18q14 -16 57 -194.5t72 -332.5q18 -104 24 -197.5t6 -310.5 l3 -344h-82l-11 365q-8 365 -28 469q-31 158 -65 291t-42 133q-14 0 -14 -6q0 -29 -32 -260.5t-44 -286.5q-14 -70 -14 -95q0 -8 2 -12q12 -20 -21 -22q-23 -2 -41 8q-33 18 -87 111.5t-98 180.5t-54 91q-2 0 -4 -59.5t-3 -164t-1 -227.5q0 -303 -3.5 -379.5t-17.5 -82.5 q-23 -8 -35 4q-4 4 -8 89t-7 228t-6 282.5t-6 312.5t-6 255z" />
<glyph unicode="N" horiz-adv-x="540" d="M23 1159q6 9 28 9q7 0 17 -1q25 -2 38 -22.5t41 -100.5q45 -119 80 -260q27 -100 73 -221t58 -121q4 0 4 104q0 69 -2 185l-6 289l33 12q33 10 47 6q12 -4 16 -129t17.5 -371.5t48.5 -471.5q4 -23 4 -38q0 -8 -2 -14q-4 -14 -31 -30q-27 -19 -36 -19l-1 1q-8 2 -30 28 q-29 35 -87.5 174t-70.5 203q-10 53 -50 143t-50 137q-16 66 -25 66q-10 0 -10 -96q0 -59 4 -160q10 -258 12 -363l2 -102h-82l-10 283q-4 88 -14 328.5t-15 392.5q-3 84 -3 124q0 31 2 35z" />
<glyph unicode="O" horiz-adv-x="485" d="M22 898q3 56 23 114q16 49 37.5 81.5t36 47t38 22.5t30 8h24.5q41 0 60.5 -8t45.5 -37q43 -45 57.5 -79.5t33.5 -137.5q57 -313 57 -557q0 -170 -21.5 -238.5t-91.5 -111.5q-60 -38 -108 -38q-14 0 -28 4q-58 14 -110 93q-39 61 -57 186.5t-24 377.5q-4 145 -4 218 q0 36 1 55zM135 397q12 -143 21.5 -190t33.5 -88q14 -25 32 -43.5t26 -18.5q20 0 67 45q29 31 38 54.5t18 83.5q3 30 3 70q0 146 -40 421q-27 184 -41 240.5t-41 79.5q-29 23 -49 23q-11 0 -19 -6q-24 -18 -49 -97q-20 -66 -20 -210t20 -364z" />
<glyph unicode="P" horiz-adv-x="530" d="M21 1083q6 74 18 96.5t53 47.5q52 28 105 28q25 1 47 -5q76 -18 132 -56.5t56 -54.5q0 -8 26 -65q26 -58 42 -120q8 -32 8 -75q0 -39 -6 -86q-18 -82 -64.5 -127t-167.5 -103l-141 -67l8 -142q8 -139 23 -241q13 -103 13 -142q0 -20 -3 -24q-6 -6 -27 -6q-35 0 -53 41 q-16 33 -35.5 297t-29.5 591q-6 87 -6 148q0 37 2 65zM111 928q2 -18 2 -51q4 -247 17 -261q3 -3 10 -4q24 0 102 36q100 46 141 85q48 45 48 130q0 19 -2 40q-13 115 -91 201q-33 37 -54.5 48t-66.5 15q-16 1 -29 1q-44 0 -57 -15q-20 -27 -20 -182v-43z" />
<glyph unicode="Q" horiz-adv-x="653" d="M23 637q16 209 69.5 329t151.5 171q41 21 80 21q87 0 168 -103q121 -154 137 -414q2 -35 2 -68q0 -198 -80 -362l-43 -88l45 -45q38 -40 38 -64q0 -10 -7 -18q-9 -7 -21 -7q-29 0 -78 42q-29 23 -47 29t-49 1q-21 -3 -40 -3q-145 0 -239 148q-90 141 -90 348q0 40 3 83z M111 668q-8 -68 -8 -128q0 -157 55 -255q29 -49 90 -99q54 -44 83 -44q4 0 7 1q20 2 24 17q2 5 2 12q0 19 -8 55q-4 29 20.5 41.5t49.5 -8.5q27 -25 39 -24q20 0 49 107.5t35 201.5q2 39 2 70t-2 55q-4 47 -23 123q-25 94 -50.5 140t-84.5 109q-39 39 -59 42h-4 q-20 0 -58 -21q-66 -39 -103.5 -131t-55.5 -264z" />
<glyph unicode="R" horiz-adv-x="520" d="M22 688q8 532 20 549q12 15 35 15h3q24 -1 102 -17q66 -16 148 -47t104 -49q28 -23 50 -78q17 -43 17 -74q0 -9 -1 -16q-8 -37 -53.5 -90.5t-69.5 -53.5q-20 0 -37 -20q-6 -8 -7 -18.5t1 -29t7 -41t13 -61.5t16.5 -83t18.5 -112.5t21 -142.5q18 -147 19 -190t-11 -55 q-14 -14 -26 -14q-51 0 -73 251q-8 86 -34.5 238.5t-40.5 189.5q-8 20 -19.5 26.5t-40.5 4.5q-18 -2 -29.5 -6t-21.5 -19.5t-15 -36t-9.5 -64.5t-5.5 -94t-3 -136q-4 -279 -24 -297q-12 -12 -19.5 -11.5t-19.5 15.5q-17 26 -17 336q0 100 2 231zM106 1063q0 -190 37 -203 q4 -2 11 -2q28 0 106 26q98 32 121 54q28 28 28 59q0 23 -15 47q-36 56 -140 93q-43 16 -62.5 22t-39.5 8q-8 1 -15 1q-9 0 -12 -2q-6 -3 -12.5 -18t-6.5 -31.5v-53.5z" />
<glyph unicode="S" horiz-adv-x="552" d="M20 492q0 39 5.5 46t33 7t36.5 -14.5t28 -86.5q55 -213 117 -235q37 -14 67 -14q29 1 49 13q44 26 64 107q17 62 17 109q0 44 -16 76q-32 62 -165 135q-158 83 -197 147q-26 43 -26 122q0 38 6 85q14 106 22 133q14 39 53 79q38 39 88 69q38 23 85 24q15 0 29 -3 q64 -9 116 -68q43 -49 77 -134q25 -61 25 -96q0 -13 -4 -22q-8 -18 -34.5 -20.5t-38.5 16.5q-14 23 -29.5 71.5t-15.5 73.5q0 27 -30 49.5t-75 30.5q-8 2 -17 2q-35 0 -72 -26q-46 -32 -64 -87q-15 -47 -15 -133v-30l4 -111l129 -70q109 -57 165.5 -105t78.5 -100 q19 -46 19 -101q0 -62 -23 -136q-43 -141 -125 -180q-37 -17 -79 -17q-32 0 -70 10q-84 24 -125 85q-29 43 -59.5 143t-33.5 156z" />
<glyph unicode="T" horiz-adv-x="669" d="M31 1118q-9 13 -9 23q0 18 29 26q47 13 256 19q78 2 178 6q63 3 91 3q14 0 20 -1q18 -2 33 -18q2 -2 4 -5q14 -16 14 -28q0 -20 -41 -29q-29 -6 -80 -10l-100 -8l4 -41q4 -41 8 -582q1 -156 1 -263q0 -159 -2 -205q-3 -77 -21 -87q-13 -7 -23 -7q-30 0 -41 58 q-10 57 -10 449v49q-2 518 -14 567l-13 47l-135 9q-82 4 -111.5 9t-37.5 19z" />
<glyph unicode="U" horiz-adv-x="606" d="M20 1186h37q37 0 43 -17.5t21 -347.5q12 -268 28.5 -360t67.5 -164q20 -29 33.5 -54.5t19.5 -37.5t10.5 -22.5t14.5 -12.5t22.5 -2t40.5 4q45 6 71 17.5t44.5 34t21.5 69.5q1 19 1 40q0 33 -2 69q-4 62 -17 165q-20 170 -20 371q0 184 14 195q4 4 14 4q27 0 37 -47 q6 -35 29.5 -303.5t34.5 -419.5q1 -22 1 -41q0 -111 -38 -162q-45 -60 -172 -70q-33 -3 -59 -3q-47 -1 -68 9q-33 14 -68 78l-69 127q-43 76 -59.5 187.5t-24.5 371.5z" />
<glyph unicode="V" horiz-adv-x="591" d="M25 1063q6 6 34 10l43 4l154 -651q31 -135 43 -135q10 0 21.5 57.5t42 227t67.5 339.5q49 222 57 271q5 42 19 62q8 11 20 12q9 0 21 -7q2 -2 6 -2q18 -10 17.5 -28.5t-17.5 -118.5q-4 -18 -6 -29l-70 -391q-102 -582 -129 -610q-10 -10 -26 -10q-10 0 -23 4 q-35 14 -69.5 117.5t-110.5 428.5l-78 324q-19 80 -19 110q0 12 3 15z" />
<glyph unicode="W" horiz-adv-x="983" d="M23 1074q6 32 47 26q18 -2 27 -24.5t24 -96.5l65 -330q43 -211 43 -248q0 -35 36 -157.5t50 -141.5q9 -11 18 -11q19 0 36 50q6 18 10 41q14 70 51 203t47 156q14 27 48 25.5t53 -29.5q14 -23 52 -117t70.5 -173t38.5 -79q27 0 27 151q0 203 46 493t93 376q13 22 31 24 q1 0 2 1q17 0 25 -19q1 -2 1 -8q0 -36 -34 -205q-41 -211 -62.5 -465t-30 -408.5t-18.5 -177.5q-14 -25 -36 -25q-9 1 -19 5q-35 14 -41 61q-6 29 -95 229.5t-98.5 200.5t-37.5 -118q-29 -119 -47.5 -181.5t-36 -100.5t-32 -46t-36.5 0q-29 8 -53.5 40t-46 89t-40 118.5 t-40 157t-38 175t-41 201.5t-44.5 208q-15 75 -15 112q0 11 1 18z" />
<glyph unicode="X" horiz-adv-x="751" d="M26 8q14 34 78 111q45 53 116 156.5t71 115.5q0 6 20.5 41t42 73t31.5 78t-10 58q-10 12 -35 74.5t-74 192.5t-94 239q-29 74 -31 103.5t23 41.5q23 13 34 13h1q8 -4 41.5 -91.5t50.5 -152.5q12 -51 80.5 -203.5t77.5 -152.5q6 0 57 81.5t98 167.5q59 106 66 107 q12 0 36.5 -15.5t24.5 -23.5q0 -12 -59 -121l-176 -321l92 -224q102 -252 118 -298q9 -26 8 -43q0 -13 -5 -21q-14 -25 -31 -29h-1q-13 0 -55 84q-44 88 -69 166q-12 41 -35.5 85t-40.5 91q-25 66 -40 66t-91 -131q-51 -86 -95 -149.5t-155 -203.5q-25 -33 -34 -36h-3 q-9 0 -24 14q-14 14 -14 33q-1 11 5 24z" />
<glyph unicode="Y" horiz-adv-x="526" d="M20 1223q0 16 25 30q21 12 33 12q3 0 6 -1q12 -4 31 -39q18 -37 62 -102.5t75 -113.5t31 -57q0 -10 26.5 -33.5t38.5 -0.5t45 137q23 80 34 102.5t32 26.5q33 4 45 -8q2 -2 2 -11q0 -32 -32 -156q-40 -155 -64 -190q-14 -23 -16 -101q-1 -29 -1 -88q0 -94 2 -263 q2 -173 2 -267q0 -71 -1 -96q-3 -61 -21 -72q-15 -8 -25 -8q-17 0 -24 19q-16 47 -19 424l-2 409l-45 64q-47 63 -115 166q-123 188 -125 217z" />
<glyph unicode="Z" horiz-adv-x="790" d="M22 35q8 37 56 96q61 72 147 240q63 123 71.5 149.5t-9.5 46.5q-25 27 -12.5 50.5t53.5 27.5q10 2 17 4t16.5 11.5t16.5 18.5t21.5 32.5t29.5 47t44 68.5t57 91q94 141 95 147q0 6 -164 14q-240 12 -268 41q-16 14 -5 45q4 11 14 15q9 4 30 3h10q28 -1 64 -4t111 -6.5 t156 -3.5q129 0 155 -5t36 -27q6 -13 6 -24q0 -9 -4 -17q-8 -18 -51 -66q-64 -72 -64 -84q0 -8 -82 -129q-73 -108 -73 -147q0 -21 22 -21q18 0 43 -20q19 -13 19 -25q0 -13 -21 -24q-25 -12 -65 -13q-45 0 -59.5 -12t-53.5 -82q-31 -55 -73 -139t-70.5 -134t-59.5 -85 q-41 -44 -41 -58q0 -3 2 -4q8 -10 46 -10q16 0 37 2q71 6 126 27q73 26 131 26h4q41 0 49.5 -5t6.5 -25q-4 -33 -115 -70t-231 -45q-52 -4 -80 -4q-15 0 -23 1q-24 3 -43 19q-27 24 -27 53q1 6 2 13z" />
<glyph unicode="[" />
<glyph unicode="\" horiz-adv-x="280" d="M29 1176q10 10 34.5 9t30.5 -11q4 -4 38 -257t73 -519.5t53 -299.5q8 -20 -10.5 -47.5t-44.5 -11.5q-16 8 -27.5 39t-24 101.5t-22.5 145t-31.5 223t-42.5 286.5q-51 317 -26 342z" />
<glyph unicode="]" />
<glyph unicode="a" horiz-adv-x="632" d="M24 130q10 32 21 237q8 135 30.5 246.5t49.5 176t53.5 110.5t42 62.5t17.5 16.5q41 0 67.5 -28.5t54 -86t48.5 -84.5q37 -51 91 -155.5t66 -149.5q16 -55 37 -176q11 -67 11 -106q0 -20 -3 -32q-7 -33 -37 -33q-5 0 -10 1q-20 2 -28.5 22.5t-18.5 92.5q-2 25 -6 51.5 t-5 37.5t-4 25.5t-5 20.5t-6.5 13t-8.5 16q-13 16 -39 17h-5q-30 0 -132 -11q-158 -16 -167 -24.5t-25 -139.5q-13 -100 -29 -135q-13 -27 -34 -27q-6 0 -13 2q-16 6 -16 23q0 8 3 17zM150 496q6 -6 37 -6q38 0 112 9q139 18 139 35q0 19 -49 101q-23 37 -44 73.5t-33.5 58 t-24 40t-18.5 27t-13 8.5q-29 0 -78 -162q-34 -113 -34 -158q0 -19 6 -26z" />
<glyph unicode="b" horiz-adv-x="768" d="M29 102q-6 11 -6 19q0 17 28 22q25 2 76 4h92v254q0 254 -6 379l-8 123l61 8q45 7 114 7q28 0 59 -1q110 -4 171 -36q102 -55 120 -76t18 -82q0 -53 -29 -90t-101 -76q-70 -39 -70 -60q0 -6 5 -10q8 -8 29 -14q99 -35 99 -130q0 -92 -95 -196q-88 -94 -251 -94h-13 q-264 4 -293 49zM300 752l3 -66q10 -127 19 -137q5 -5 18 -5q35 0 127 38q127 53 168 98q25 27 25 49q0 5 -2 11q-8 26 -52 57q-47 31 -155 39q-45 2 -65 3h-7q-17 -1 -35 -5q-22 -6 -28 -12q-7 -4 -12 -26q-4 -18 -4 -36v-8zM308 268q1 -142 11 -147q5 -3 16 -3q20 0 58 12 q58 20 92 48q49 39 82 105q25 49 25 62q0 12 -12 26q-20 19 -132 43q-63 13 -97 14q-26 0 -34 -8q-9 -9 -9 -127v-25z" />
<glyph unicode="c" horiz-adv-x="438" d="M26 364q-8 59 -8 121q0 95 19 199q16 90 66.5 187t95.5 128q47 32 88 32q50 0 90 -48q42 -48 42 -97q0 -13 -3 -26q-4 -20 -17 -31q-20 -18 -41.5 -2.5t-21.5 50.5q0 29 -29 55q-20 20 -29.5 17t-44.5 -40q-89 -96 -117 -307q-9 -69 -9 -135q0 -137 40 -264 q29 -86 47.5 -103.5t53.5 4.5q27 16 48 48t37.5 51.5t37.5 15.5q30 -4 30 -29q0 -21 -22 -57q-47 -82 -127 -123q-33 -17 -59 -17q-15 0 -27 5q-37 14 -78.5 116t-61.5 250z" />
<glyph unicode="d" horiz-adv-x="706" d="M20 221q0 12 13 27t13 125q0 86 -8 229.5t-8 229.5q0 110 13 126q15 19 35 19q6 0 13 -2q28 -8 34 -37q4 -23 19.5 -32t62.5 -19q182 -41 308 -127t157 -193q14 -44 14 -85q0 -93 -70 -171q-57 -66 -138 -97.5t-214 -41.5q-78 -6 -95 -11t-13 -26q2 -18 -6.5 -24.5 t-32.5 -8.5q-9 -1 -17 -1q-18 1 -26 7q-12 10 -31 54q-23 47 -23 59zM133 541q8 -219 21 -250q14 -33 62 -33h11q8 0 70 6q182 18 258 111q39 45 39 111.5t-37 117.5q-43 53 -140.5 113.5t-183.5 91.5q-49 18 -75 18q-19 0 -25 -10q-4 -6 -4 -75t4 -201z" />
<glyph unicode="e" horiz-adv-x="487" d="M25 985q8 20 33 20q6 1 14 -1q37 -6 41 -35q4 -27 24 -29h4q23 0 117 18q89 20 135 20q8 0 15 -1q29 -4 37 -11.5t8 -27.5t-7.5 -28.5t-27.5 -10.5q-55 -6 -176 -34.5t-129 -35.5q-6 -6 -6 -46.5t6 -114.5l10 -150l172 -6q158 -6 168 -20q4 -4 4 -15q0 -10 -4 -15 t-23.5 -10.5t-49.5 -8.5t-95 -7l-172 -14v-260l117 -8q86 -4 101 -10.5t15 -31t-18 -30.5q-18 -4 -131 -8q-38 -1 -66 -1q-86 0 -94 9q-10 10 -21 444q-6 227 -6 342q0 105 5 117z" />
<glyph unicode="f" horiz-adv-x="460" d="M23 869.5q0 15.5 8 19.5q14 8 14 40t9 42q6 7 26 7q8 0 18 -1q23 -4 30 -12.5t7 -34.5v-41l150 -6q109 -6 131 -11.5t24 -25.5v-6q0 -28 -37 -40q-41 -14 -147 -14q-102 0 -118 -17q-8 -9 -8 -41q0 -29 7 -77l10 -92h117q70 0 95.5 -4t33.5 -18q7 -11 7 -20 q0 -23 -48 -34q-31 -6 -84 -10l-106 -10v-227q0 -209 -12 -220q-3 -3 -8 -3q-3 0 -7 1q-23 2 -33 11.5t-18 43t-11 84t-7 150.5q-4 129 -12.5 240.5t-14.5 168t-11 99.5t-5 58.5z" />
<glyph unicode="g" horiz-adv-x="526" d="M25 524q10 140 30 213q23 84 72.5 149.5t112.5 98.5q28 15 76 15q14 0 30 -1q70 -6 96 -30q20 -18 23.5 -49t-14.5 -48q-18 -20 -29.5 -16t-24.5 33q-12 35 -50 35q-18 0 -41 -8q-73 -23 -113 -91q-47 -78 -70 -220q-14 -86 -14 -170q0 -55 6 -109q10 -90 44 -131t99 -41 q61 0 93 32.5t52 114.5q12 56 12 85q0 19 -5 26q-35 41 -181 47q-49 2 -64 7t-15 21q0 37 62 47q21 4 44 4q45 0 98 -14q80 -20 123 -59q30 -26 30 -62t-22 -129q-14 -61 -28.5 -90.5t-44.5 -60.5q-37 -37 -57.5 -44t-84.5 -7q-113 0 -168 56t-75 189q-7 37 -7 95 q0 49 5 112z" />
<glyph unicode="h" horiz-adv-x="544" d="M21 918q2 118 24 141q23 23 43 8q20 -14 25 -276.5t12 -274.5q4 -6 28 -6q33 0 102 12q120 20 130 29q1 1 1 13q0 45 -18 248q-18 190 -18 245q0 19 2 22q4 7 23 7q8 0 18 -1l37 -4l25 -247q6 -68 13 -125.5t12 -92t9.5 -61.5t7.5 -40t5 -22.5t2 -13.5t-4 -8 q-2 -3 -2 -19q0 -49 14 -216q8 -94 11 -140q1 -20 1 -37q0 -23 -2 -41q-4 -30 -13 -36.5t-30 -6.5q-25 0 -33 39q-10 45 -22 178.5t-12 192.5v72l-74 -2q-72 -2 -141 -17l-68 -16l-4 -160q-4 -160 -25 -178q-33 -27 -45 4q-14 41 -24 342q-10 316 -10 449v39z" />
<glyph unicode="i" horiz-adv-x="165" d="M22 796q-1 50 -1 90q0 132 8 144q10 15 31 15q5 0 10 -1q18 -2 22 -24q8 -37 17 -385q8 -406 24 -492q12 -57 12 -75.5t-14 -32.5q-13 -13 -25 -13q-23 0 -36 56q-18 72 -31 282q-14 218 -17 436z" />
<glyph unicode="j" horiz-adv-x="686" d="M37 344q18 18 29.5 13t27.5 -38q25 -45 83.5 -84.5t98.5 -39.5q82 0 107 91q15 54 15 160q0 72 -7 168q-25 305 -45 320q-18 8 -48 8q-14 0 -32 -2t-36 -2q-36 0 -72 8q-56 12 -56 51q0 33 6.5 38t274.5 9q72 1 123 1q75 0 103 -2q46 -3 53 -17q4 -12 4 -22q0 -14 -8 -23 q-15 -16 -44.5 -21.5t-61.5 -6.5t-60.5 -4t-36.5 -11q-4 -12 -4 -16t4 -39t9 -73t10 -116t9 -170q3 -111 3 -168q0 -29 -1 -45q-2 -47 -22 -90q-47 -108 -188 -108h-3q-113 0 -209 110q-43 49 -43 84q0 21 17 37z" />
<glyph unicode="k" horiz-adv-x="598" d="M27 782q-5 97 -5 154q0 69 7 82q8 13 31 13q6 0 12 -1q25 -2 29.5 -11t2.5 -48q-1 -10 -1 -25q-1 -55 11 -182q14 -162 23 -168q1 -1 2 -1q11 0 64 56q193 213 227 232q18 10 37 2q33 -16 33 -31q0 -10 -55.5 -70.5t-134.5 -144.5t-115 -129l-52 -64v-165 q0 -238 -41 -238q-27 0 -39 71.5t-18 286.5q-6 168 -18 381zM245 499q-2 5 -2 10q0 13 13 28q13 13 23 13q3 0 7 -2q12 -7 66 -61q49 -51 121 -156.5t94 -160.5q10 -22 10 -39q0 -11 -4 -21q-10 -24 -38 -24q-10 0 -47 57.5t-91.5 143.5t-93.5 131q-51 63 -58 81z" />
<glyph unicode="l" horiz-adv-x="436" d="M21 592q0 514 8 528q6 7 22 7q7 0 15 -1q20 -2 26 -28q6 -29 14 -180q7 -143 7 -267q0 -83 -3 -157q-5 -119 -5 -212q-1 -53 1 -97q4 -124 35 -140q12 -6 158 -33q117 -23 117 -49q0 -10 -17 -22q-24 -19 -82 -19q-63 0 -167 23l-109 24l-12 62q-8 47 -8 561z" />
<glyph unicode="m" horiz-adv-x="800" d="M20 174l5 379q2 283 8 354.5t26 96.5q10 14 26 14q5 0 11 -2q23 -6 33 -33q8 -16 20.5 -22.5t22.5 -5.5t19.5 -4t12.5 -20.5t25.5 -50t62.5 -89t64 -97.5q45 -74 54 -74q10 0 68 152t59 176q0 35 19 52.5t48 9.5q23 -10 35 -47t43 -191q29 -141 49.5 -292.5t31.5 -251 t15 -117.5q3 -13 3 -25q0 -25 -12 -44q-15 -24 -44 -24h-8q-23 4 -30 13.5t-7 40.5q-4 160 -43 416.5t-59 256.5q-12 0 -41 -75.5t-35 -126.5q-10 -57 -45 -80q-23 -16 -33 -15t-29 17q-14 14 -76.5 112.5t-122 187.5t-73.5 89q-8 0 -11 -125t-5.5 -281.5t-8.5 -203.5 t-13 -58.5t-30 -11.5h-35z" />
<glyph unicode="n" horiz-adv-x="550" d="M20 985h48q35 0 50 -14.5t54 -87.5l107 -193q18 -33 38.5 -69.5t31.5 -58t22.5 -41t18.5 -29t11 -9.5q10 0 11 191q0 125 11 264t23 176q6 12 39 16q7 1 13 0q22 0 28 -10q1 -2 1 -14q0 -39 -15 -182q-13 -138 -13 -341v-78q3 -255 21 -306q9 -24 9 -44.5t-9 -39.5 q-18 -37 -59 -37q-31 0 -40 16.5t-32 108.5q-31 129 -60.5 199.5t-105.5 205.5q-92 158 -96 164q-8 12 -8 -18q-2 -12 24 -324q10 -117 10 -188q0 -95 -18 -107q-25 -16 -39 0q-12 12 -38.5 282.5t-32.5 436.5z" />
<glyph unicode="o" horiz-adv-x="561" d="M23 561q4 164 27.5 240t82.5 127q45 38 83 38q7 0 14 -2q44 -8 120 -79q88 -82 138 -203q51 -122 53 -240v-14q0 -110 -28 -210q-30 -106 -100.5 -171t-166.5 -65q-63 0 -95 23.5t-69 92.5q-61 121 -61 369q0 45 2 94zM109 512q0 -188 16 -275t59 -135q37 -43 67 -43 t85 43q57 43 78.5 89.5t34.5 148.5q8 58 8 94q-1 9 -1 17q-2 39 -18 102q-20 84 -46.5 144.5t-52.5 89t-45.5 41t-33.5 12.5q-39 -4 -60.5 -7.5t-40 -17.5t-26.5 -32.5t-14 -59.5t-8 -86t-2 -125z" />
<glyph unicode="p" horiz-adv-x="534" d="M19 974q1 56 9 64q5 5 41 5q39 0 115 -5q94 -4 130 -11t75 -32q61 -37 72 -57q47 -100 52 -160q1 -8 1 -16q0 -54 -31 -113q-35 -66 -83 -89q-36 -17 -94 -17q-21 0 -44 2q-92 8 -108 10q-6 2 -9.5 -9t-5.5 -40t-2 -73v-114v-241h-69l-9 207q-4 61 -11 166.5t-13 196.5 t-11 180q-5 76 -5 128v18zM116 804q1 -128 13 -159q8 -23 25 -26q7 -1 22 -1q25 0 74 3q70 4 97.5 12t50 28.5t28.5 40t6 66.5t-8 68.5t-39 56.5q-33 37 -54.5 45t-92.5 10q-35 2 -60 2q-44 0 -52 -7q-10 -10 -10 -119v-20z" />
<glyph unicode="q" horiz-adv-x="761" d="M20 375q0 250 70 391q29 59 117 142.5t133 95.5q43 12 62.5 12t20.5 -7.5t10 -10.5t32 1q9 2 18 2q38 0 68 -43q19 -27 19 -49q0 -21 -17 -37q-18 -20 -34.5 -16t-16.5 27q0 35 -36 45q-13 4 -27 4q-28 0 -62 -12q-53 -19 -101 -60q-113 -94 -163 -286q-26 -97 -26 -186 q0 -86 24 -163q20 -70 66 -103q45 -33 95 -33h2q52 1 101 16.5t80.5 41t31.5 43.5q0 14 -21.5 46t-43 61t-29.5 63.5t19 55.5q18 16 39.5 8t22.5 -31.5t41 -70.5q34 -40 47 -40q3 0 5 1q20 12 33 83q8 47 8 92q0 21 -2 42q-8 70 -42 129t-79 82q-39 20 -101 20t-71 23 q-3 7 -3 14q0 28 57 41q26 5 51 5q56 0 110 -28q109 -55 151 -204q19 -67 19 -131q0 -81 -30 -160q-29 -76 -29 -95.5t57 -78.5q35 -37 42 -51q3 -6 3 -12q0 -9 -6 -17q-20 -23 -38.5 -16.5t-67.5 53.5l-58 57l-53 -41q-63 -51 -109.5 -69.5t-107.5 -18.5q-150 0 -215.5 87 t-65.5 286z" />
<glyph unicode="r" horiz-adv-x="665" d="M22 738q2 175 25 212q5 8 17 10h5q14 0 45 -6q38 -6 70 -8q90 -8 187.5 -62.5t126.5 -113.5q23 -47 23 -89q0 -104 -144 -171q-90 -43 -90 -53q0 -2 66.5 -60.5t151.5 -147.5t124 -159q16 -31 16 -74q0 -29 -6 -35q-4 -5 -20 -5q-5 0 -11 1q-23 2 -34 14.5t-16 31 t-29.5 58.5t-65.5 85q-88 98 -213 192q-104 78 -135 77q-6 0 -9 -3t-3 -33q1 -43 7 -141q4 -63 4 -104q0 -69 -12 -80q-18 -18 -31 -18q-18 0 -26 36q-6 20 -6 51l-9 210q-9 183 -9 339q1 23 1 46zM98 696l4 -137l72 -4q13 -1 25 -1q93 0 165 41q70 39 70 88q0 8 -2 17 q-10 47 -68 92.5t-128 59.5q-76 16 -103 16t-33 -18q-4 -10 -4 -63q0 -36 2 -91z" />
<glyph unicode="s" horiz-adv-x="460" d="M20 745q0 121 115 195q33 21 76 21q13 -1 27 -3q60 -8 120 -49q82 -56 82 -95q0 -15 -12 -26q-16 -16 -23.5 -14t-23.5 23q-20 25 -78.5 55.5t-87.5 30.5q-25 0 -68 -41q-45 -41 -45 -94q0 -22 8 -45q26 -82 126 -152q158 -104 184 -189q10 -28 10 -62q0 -21 -4 -45 q-10 -62 -39 -95q-20 -23 -39.5 -30t-71.5 -9q-55 0 -73.5 7t-52.5 44q-39 43 -44.5 64.5t17.5 42.5q14 10 27.5 2.5t46.5 -43.5q53 -55 69 -56q23 0 53.5 37t30.5 66q0 39 -23.5 78.5t-62.5 66.5q-66 47 -137.5 112.5t-85.5 94.5q-20 39 -21 108z" />
<glyph unicode="t" horiz-adv-x="569" d="M20 971q1 31 11 41q7 7 34 7q13 0 33 -2q58 -5 232 -36q199 -33 213 -49q6 -6 6 -23q0 -25 -12.5 -28.5t-85.5 -3.5q-98 0 -108.5 -11.5t-12.5 -412.5q0 -270 -4 -337t-19 -77q-13 -8 -23 -8q-9 0 -16 7q-14 15 -20 433q-4 272 -9.5 348t-19.5 86q-23 16 -110 27 q-59 6 -74 12t-15 27z" />
<glyph unicode="u" horiz-adv-x="477" d="M28 630q-10 131 -9 209q0 88 12 111q14 27 35 27h6q14 -3 17 -29q2 -15 2 -56q0 -27 -1 -65q-1 -17 -1 -35q-1 -109 21 -260q24 -176 62 -299q31 -101 77 -125q13 -7 27 -6q32 0 64 41q20 29 24.5 72t4.5 211q0 158 -4 307q-2 36 -2 56q0 15 1 21q3 14 17 24 q25 14 43 -11t28 -159q7 -94 6 -210q0 -49 -1 -102q-4 -125 -10.5 -168t-26.5 -82q-44 -82 -112 -92q-10 -1 -19 -1q-57 1 -113 51q-64 60 -94 167q-34 125 -54 403z" />
<glyph unicode="v" horiz-adv-x="505" d="M20 897q8 11 31 11q7 0 15 -1q23 -2 34 -21.5t33.5 -93t35.5 -133t23.5 -94.5t32.5 -88q35 -82 35 -100q0 -8 5 -12.5t11 -2.5q10 4 35 106.5t54.5 216.5t48.5 138q16 18 34.5 16.5t30.5 -22.5q5 -9 5 -25q0 -28 -17 -75q-23 -63 -58.5 -241.5t-48.5 -280.5 q-6 -61 -13 -76t-34 -17q-7 -1 -13 -1q-25 0 -36 14q-14 18 -50 121.5t-36 125.5q0 27 -35 109q-35 84 -82 249q-42 146 -42 172q0 4 1 5z" />
<glyph unicode="w" horiz-adv-x="989" d="M23 809q7 22 25 22q16 0 40 -18q43 -33 57 -82q0 -2 25 -69.5t57.5 -169t57.5 -183.5q25 -86 33 -86t61 189q68 242 92 266q12 12 35 10q33 -4 44 -33.5t15 -115.5q2 -61 31 -156.5t47 -99.5h1q13 1 88 161q77 164 116 277q35 100 55 131q19 30 37 30q6 0 10 -2 q20 -11 19 -55v-8q-4 -68 -122 -337t-134 -341q-14 -51 -22.5 -62t-37.5 -11q-25 0 -37 9t-26 38q-23 49 -25 82q0 35 -32.5 124t-47.5 93q-6 2 -12 -7.5t-13 -31t-15.5 -55t-16.5 -80.5q-25 -121 -37 -150t-43 -35q-8 -2 -15 -2q-33 0 -59 39q-32 47 -75 184 q-125 412 -158 469q-20 35 -20 55q0 6 2 11z" />
<glyph unicode="x" horiz-adv-x="579" d="M27 930q17 21 35 21q7 -1 14 -3q26 -10 37 -51q8 -27 19 -49.5t33.5 -61t45.5 -88.5q35 -75 48 -75h1q10 4 56 96t67 153q14 37 50 37q42 0 42 -22q0 -28 -76 -197l-82 -182l95 -189q147 -293 147 -355q0 -7 -2 -11q-7 -19 -17 -19q-15 0 -38 37q-6 8 -10 19l-119 225 q-93 176 -107 182h-1q-17 0 -93 -106q-61 -82 -88 -98.5t-47 18.5q-12 18 1 41.5t57 84t77 118.5l37 61l-100 195q-66 129 -80 167q-8 20 -8 34q0 12 6 18z" />
<glyph unicode="y" horiz-adv-x="550" d="M27 920q14 24 41 24q20 0 69 -89t101.5 -191.5t70.5 -120.5q18 -16 25.5 -16.5t25.5 16.5q33 31 53.5 147.5t30 233t9.5 120.5q4 16 41 17h36l-6 -182q-6 -158 -27.5 -240t-68.5 -135l-43 -49l8 -185q3 -75 3 -118q0 -21 -1 -34q-2 -38 -14 -48q-11 -9 -21 -9q-6 0 -12 5 q-10 12 -25.5 125.5t-15.5 185.5q0 47 -8 61.5t-45 40.5q-55 35 -72 86q-12 37 -71.5 155t-81.5 152q-9 12 -9 25q0 11 7 23z" />
<glyph unicode="z" horiz-adv-x="722" d="M23 174q-2 7 -2 14q0 18 12 36q16 24 98 102q117 115 182 159q63 43 150.5 119t87.5 88q0 4 -97 20q-98 14 -189 40q-82 23 -82 51q0 3 1 6q9 21 9 33q0 8 10 10q4 1 10 1q9 0 21 -2q20 -3 44.5 -8t57.5 -13.5t66.5 -15.5t73.5 -14t75 -9q151 -12 151 -65 q0 -15 -100 -112.5t-141 -121.5q-55 -35 -182 -149q-123 -111 -123 -125q0 -11 40 -11q36 0 128 4t157 4q68 0 87.5 -4t21.5 -21q4 -25 -8 -38q-23 -24 -272 -38q-102 -6 -165 -5q-91 0 -102 12q-10 12 -20 53z" />
<glyph unicode="{" />
<glyph unicode="|" />
<glyph unicode="}" />
<glyph unicode="~" horiz-adv-x="921" d="M29.5 503q23.5 44 99.5 79q51 25 147 24l97 2l112 -119q113 -119 135.5 -110.5t36.5 8.5q10 0 54.5 44t92.5 83t68 33q29 -10 29 -27q0 -27 -48 -84t-97 -92q-41 -27 -67.5 -36t-70.5 -9q-61 0 -97 24.5t-103 114.5q-43 59 -83 74.5t-122 5.5q-43 -6 -72.5 -22.5 t-39 -31.5t-19.5 -29.5t-14.5 -16.5t-22.5 8q-39 33 -15.5 77z" />
<glyph unicode="&#xa2;" />
<glyph unicode="&#xa3;" horiz-adv-x="1015" d="M37 233q18 20 102 17.5t174 -15t166 -23.5t80 -9q29 18 -2 108t-94 168q-33 41 -50.5 50.5t-72.5 11.5q-53 4 -66.5 9t-17.5 25q-4 23 6 31t55 23q16 4 -32 133q-31 82 -38 117.5t-1 83.5q10 88 64.5 165.5t129.5 112.5q47 23 124 26t130 -16q57 -18 97 -61t36 -80 q-4 -41 -27.5 -46t-37.5 30q-14 43 -63.5 67.5t-118.5 24.5q-68 0 -110 -18.5t-89 -67.5q-76 -80 -72 -171t86 -216q51 -76 64 -84q16 -8 150 -29.5t257 -49.5t127 -56q4 -16 -4 -23.5t-34.5 -8.5t-70.5 4t-118 17q-184 29 -195 23q-8 -4 11.5 -46t45 -104.5t25.5 -107.5 q0 -49 8.5 -61.5t61.5 -36.5q160 -72 190 -203q14 -57 6 -79t-40 -13q-16 2 -25.5 22.5t-21 53t-23.5 55.5q-18 25 -75.5 62.5t-80.5 37.5q-12 0 -38.5 -21.5t-55.5 -48t-79 -48t-107 -21.5q-39 0 -137.5 52t-169 123t-29.5 111zM158 158q0 -10 88 -72q61 -41 84.5 -49 t66.5 -4q33 4 66 19.5t49 35t4 29.5q-16 16 -108.5 32.5t-165 18.5t-84.5 -10z" />
<glyph unicode="&#xa7;" />
<glyph unicode="&#xab;" horiz-adv-x="872" d="M23 340q-8 39 30.5 99.5t149.5 181.5q35 39 70.5 81.5t58 70.5t46 54.5t38 41t30 22.5t27.5 4t23 -18q10 -12 -1.5 -36t-62.5 -87q-41 -51 -124 -146.5t-133 -156t-50 -74.5q0 -18 19.5 -23.5t95.5 -9.5q164 -8 223 -68q35 -33 4 -61q-10 -12 -20.5 -13t-28 6l-40 16 t-71.5 19.5t-110 14.5q-106 8 -136 22.5t-38 59.5zM498 403q0 47 24.5 86t120.5 148q80 92 112.5 111.5t57.5 -11.5q14 -16 -2 -40.5t-107.5 -121t-105.5 -137.5t29 -76q25 -18 68.5 -32.5t77.5 -20.5t58.5 -21.5t20.5 -41.5q-4 -18 -14.5 -23.5t-44.5 -3.5 q-123 8 -210 62.5t-85 121.5z" />
<glyph unicode="&#xad;" horiz-adv-x="589" d="M25 398q-8 13 0 38q6 16 50 18.5t210 -5.5q264 -10 280 -35q8 -12 -8 -31q-10 -14 -49 -18.5t-150 -4.5q-115 0 -180 3.5t-105 12.5t-48 22z" />
<glyph unicode="&#xbb;" horiz-adv-x="890" d="M20.5 197.5q-0.5 15.5 16.5 46.5q29 61 89 118.5t130 88.5q78 35 105.5 57t27.5 51q0 33 -51 62q-47 31 -121 107.5t-90 117.5q-12 27 -10 37t18 22q27 18 37 19q23 0 38 -14.5t15 -32.5q0 -45 20.5 -70t96.5 -76q84 -57 113.5 -95t29.5 -87q0 -53 -38.5 -92t-135.5 -86 q-88 -41 -120.5 -73t-73.5 -112q-27 -51 -46.5 -57t-37.5 33q-12 20 -12.5 35.5zM406 279q-6 39 109.5 150.5t213.5 162.5q68 35 57 59q-12 31 -188 121q-90 47 -118.5 68.5t-33.5 42.5q-4 32 29 57q25 18 35 16t10 -28q0 -23 146 -94q123 -63 163.5 -102.5t40.5 -94.5 q0 -45 -26.5 -75t-100.5 -62q-47 -23 -112.5 -87.5t-115.5 -113.5t-75 -47q-31 6 -34 27z" />
<glyph unicode="&#xbf;" />
<glyph unicode="&#xc0;" />
<glyph unicode="&#xc1;" />
<glyph unicode="&#xc2;" />
<glyph unicode="&#xc4;" />
<glyph unicode="&#xc7;" />
<glyph unicode="&#xc8;" />
<glyph unicode="&#xc9;" />
<glyph unicode="&#xca;" />
<glyph unicode="&#xcb;" />
<glyph unicode="&#xce;" />
<glyph unicode="&#xcf;" />
<glyph unicode="&#xd1;" />
<glyph unicode="&#xd3;" />
<glyph unicode="&#xd4;" />
<glyph unicode="&#xd6;" />
<glyph unicode="&#xd9;" />
<glyph unicode="&#xda;" />
<glyph unicode="&#xdb;" />
<glyph unicode="&#xdc;" />
<glyph unicode="&#xdf;" />
<glyph unicode="&#xe0;" />
<glyph unicode="&#xe1;" />
<glyph unicode="&#xe2;" />
<glyph unicode="&#xe4;" />
<glyph unicode="&#xe7;" />
<glyph unicode="&#xe8;" />
<glyph unicode="&#xe9;" />
<glyph unicode="&#xea;" />
<glyph unicode="&#xeb;" />
<glyph unicode="&#xee;" />
<glyph unicode="&#xef;" />
<glyph unicode="&#xf3;" />
<glyph unicode="&#xf4;" />
<glyph unicode="&#xf6;" />
<glyph unicode="&#xf9;" />
<glyph unicode="&#xfa;" />
<glyph unicode="&#xfb;" />
<glyph unicode="&#xfc;" />
<glyph unicode="&#x2000;" horiz-adv-x="721" />
<glyph unicode="&#x2001;" horiz-adv-x="1442" />
<glyph unicode="&#x2002;" horiz-adv-x="721" />
<glyph unicode="&#x2003;" horiz-adv-x="1442" />
<glyph unicode="&#x2004;" horiz-adv-x="480" />
<glyph unicode="&#x2005;" horiz-adv-x="360" />
<glyph unicode="&#x2006;" horiz-adv-x="240" />
<glyph unicode="&#x2007;" horiz-adv-x="240" />
<glyph unicode="&#x2008;" horiz-adv-x="180" />
<glyph unicode="&#x2009;" horiz-adv-x="288" />
<glyph unicode="&#x200a;" horiz-adv-x="80" />
<glyph unicode="&#x2010;" horiz-adv-x="589" d="M25 398q-8 13 0 38q6 16 50 18.5t210 -5.5q264 -10 280 -35q8 -12 -8 -31q-10 -14 -49 -18.5t-150 -4.5q-115 0 -180 3.5t-105 12.5t-48 22z" />
<glyph unicode="&#x2011;" horiz-adv-x="589" d="M25 398q-8 13 0 38q6 16 50 18.5t210 -5.5q264 -10 280 -35q8 -12 -8 -31q-10 -14 -49 -18.5t-150 -4.5q-115 0 -180 3.5t-105 12.5t-48 22z" />
<glyph unicode="&#x2012;" horiz-adv-x="589" d="M25 398q-8 13 0 38q6 16 50 18.5t210 -5.5q264 -10 280 -35q8 -12 -8 -31q-10 -14 -49 -18.5t-150 -4.5q-115 0 -180 3.5t-105 12.5t-48 22z" />
<glyph unicode="&#x2013;" horiz-adv-x="1065" d="M28.5 398q-14.5 13 -0.5 38q12 16 94.5 18.5t393.5 -5.5q494 -10 524 -35q15 -12 -15 -31q-19 -14 -92 -18.5t-281 -4.5q-215 0 -337 3.5t-197 12.5t-89.5 22z" />
<glyph unicode="&#x2014;" horiz-adv-x="2090" d="M36 398q-30 13 0 38q22 16 187 18.5t787 -5.5q989 -10 1049 -35q30 -12 -30 -31q-37 -14 -183.5 -18.5t-561.5 -4.5q-431 0 -674.5 3.5t-393.5 12.5t-180 22z" />
<glyph unicode="&#x201c;" horiz-adv-x="641" d="M23 962.5q-14 126.5 45 280.5q12 31 37.5 37t46.5 -18q16 -18 -19 -70q-31 -45 -42 -119t5 -131q12 -43 53 -89t93 -69q41 -18 49 -63q6 -31 -19 -31q-31 0 -76.5 20.5t-72.5 45.5q-86 80 -100 206.5zM340 1149q10 10 45 6q23 -4 29 -12t6 -33q2 -37 63.5 -121 t104.5 -106q25 -14 31 -39t-11 -37q-12 -6 -60 22.5t-99 69.5q-57 47 -95.5 136t-13.5 114z" />
<glyph unicode="&#x201e;" horiz-adv-x="733" d="M25 -131q-8 14 3 31.5t62 62.5q74 66 90 103.5t0 109.5q-10 45 -8 70.5t10 35t23 7.5q47 -8 64.5 -115.5t-15.5 -171.5q-25 -43 -97.5 -104.5t-95.5 -57.5q-20 4 -36 29zM512 -139.5q-4 30.5 33 45.5q61 25 78.5 112.5t-27.5 149.5q-25 35 -27.5 48.5t15.5 31.5 q43 43 88 -37q55 -96 39 -207q-2 -14 -6 -27q-16 -61 -62.5 -108t-85.5 -43q-41 4 -45 34.5z" />
<glyph unicode="&#x2022;" />
<glyph unicode="&#x202f;" horiz-adv-x="288" />
<glyph unicode="&#x205f;" horiz-adv-x="360" />
<glyph unicode="&#x20ac;" horiz-adv-x="749" d="M25 705q6 18 17 21t48 -3q51 -6 68.5 8t27.5 70q18 90 88 192t136 131q98 43 179 -6t95 -164q6 -45 4 -60t-16 -20q-25 -10 -44.5 9.5t-19.5 54.5q0 41 -36.5 82t-75.5 41q-53 0 -120 -77t-97 -175q-16 -53 -5 -66q10 -10 93.5 3.5t103.5 -9.5q33 -33 -12 -55.5 t-117 -35.5t-80 -21q-12 -12 -8 -80l4 -68l133 -8q100 -4 134 -17.5t24 -41.5q-4 -14 -33 -18.5t-113 -4.5h-139v-92q0 -84 29 -161t69 -107q29 -20 42.5 -21.5t58.5 17.5q57 20 113.5 81.5t74.5 122.5q18 57 45 58q16 0 23.5 -10.5t9.5 -38.5q4 -47 -49 -132 q-70 -109 -157 -153.5t-175 -18.5q-72 23 -108.5 98.5t-67.5 268.5q-8 49 -16.5 59.5t-42.5 12.5q-45 4 -64.5 19.5t-15.5 43.5q2 18 15 25.5t52 11.5l62 6l8 144l-61 8q-55 8 -75 26.5t-9 49.5z" />
<glyph unicode="&#x25fc;" horiz-adv-x="952" d="M0 0v952h952v-952h-952z" />
</font>
</defs>
</svg>
